<svg width="107" height="35" viewBox="0 0 107 35" fill="none" xmlns="http://www.w3.org/2000/svg">
<g clip-path="url(#clip0_38_2279)">
<path d="M26.8749 13.2498V13.2382L26.8731 13.2268C26.225 8.97206 23.4138 5.3591 19.4488 3.68523L18.977 3.48604L19.2633 3.91068C21.4393 7.1378 22.7229 10.883 22.9841 14.7664L22.9962 14.9465L23.1717 14.9042C24.4558 14.5946 25.6818 14.0809 26.8031 13.3827L26.8749 13.338V13.2534V13.2498ZM14.6677 2.72111L14.6673 2.72111C13.1889 2.7243 11.7232 2.99483 10.341 3.51961L10.093 3.61376L10.2994 3.78046C13.4823 6.35227 15.4336 10.1467 15.6742 14.2317L15.6799 14.3287L15.7703 14.3644C17.3424 14.9847 19.0253 15.275 20.7144 15.2173L20.8706 15.2119L20.8612 15.0559C20.5868 10.5061 18.7636 6.1873 15.6946 2.81727L15.6539 2.77257L15.5936 2.76796L15.5862 2.76739C15.2856 2.74442 14.9807 2.72111 14.6677 2.72111ZM8.02083 4.77839L7.9373 4.72391L7.85398 4.7787C3.58828 7.58321 1.49678 12.73 2.59711 17.7151L2.70166 18.1888L2.88662 17.7404C4.55508 13.6953 7.38524 10.2356 11.0194 7.79865L11.1547 7.70793L11.0551 7.57903C10.2075 6.48226 9.18192 5.53554 8.02083 4.77839ZM3.96816 21.1522L3.95229 21.2129L3.98381 21.2672C4.88217 22.8141 6.10392 24.1487 7.56543 25.1801L7.78394 25.3343L7.80507 25.0677C8.13222 20.9398 10.2043 17.1472 13.5012 14.6418L13.565 14.5934L13.5612 14.5134C13.4831 12.8436 13.0654 11.2071 12.3338 9.70398L12.257 9.54609L12.1116 9.64449C8.09052 12.365 5.19613 16.4551 3.96816 21.1522ZM9.91073 26.3827L9.91244 26.483L10.0052 26.521C11.4847 27.1279 13.0685 27.4402 14.6676 27.4407H14.6677C18.1403 27.4389 21.4507 25.9711 23.7835 23.3988L24.0853 23.0661L23.6434 23.1467C19.3546 23.929 14.9297 23.4014 10.9451 21.6326L10.799 21.5678L10.7413 21.7168C10.1655 23.2039 9.8835 24.7883 9.91073 26.3827ZM11.8541 19.5029L11.7564 19.6543L11.9219 19.7254C16.29 21.6027 21.1841 21.8622 25.7264 20.4573L25.79 20.4376L25.8187 20.3776C26.4733 19.011 26.8685 17.5348 26.9844 16.0239L27.0048 15.7572L26.765 15.8758C24.7561 16.8689 22.5454 17.3857 20.3044 17.386C18.4625 17.3798 16.6387 17.0219 14.9311 16.3314L14.8511 16.299L14.7822 16.351C13.6287 17.2216 12.6376 18.2885 11.8541 19.5029ZM0.152299 15.1009C0.152299 7.08207 6.65287 0.581498 14.6717 0.581498C22.6905 0.581498 29.191 7.08207 29.191 15.1009C29.191 23.1196 22.6905 29.6202 14.6717 29.6202C6.65287 29.6202 0.152299 23.1196 0.152299 15.1009Z" fill="white" stroke="#3787FF" stroke-width="0.304598"/>
</g>
<path d="M48.1167 13.7946H49.6149V13.8883L48.4913 22.854C48.4132 23.3065 48.1869 23.6811 47.8124 23.9776C47.4535 24.2741 47.0477 24.4224 46.5951 24.4224H38.0508H37.9572L39.9469 9.581C39.9938 9.37813 40.0718 9.18305 40.181 8.99578C40.3059 8.8085 40.4463 8.64464 40.6024 8.50419C40.7741 8.34813 40.9613 8.23108 41.1642 8.15305C41.3827 8.05941 41.6012 8.0126 41.8197 8.0126H49.8958L49.2169 12.3433C49.1857 12.6554 49.0609 12.9441 48.8424 13.2094C48.6239 13.4747 48.382 13.6698 48.1167 13.7946ZM45.7524 13.7946L46.1269 11.243H43.0135L42.639 13.7946H45.7524ZM41.7026 21.1919H45.331L45.8928 17.0251H42.241L41.7026 21.1919ZM57.6294 16.9549H54.516L53.6967 22.854C53.6655 23.3065 53.4548 23.6811 53.0646 23.9776C52.6901 24.2741 52.2765 24.4224 51.8239 24.4224H50.2087L52.1751 9.581C52.2219 9.37813 52.2999 9.18305 52.4092 8.99578C52.534 8.8085 52.6745 8.64464 52.8305 8.50419C53.0022 8.34813 53.1895 8.23108 53.3923 8.15305C53.6108 8.05941 53.8293 8.0126 54.0478 8.0126H62.0537H62.1239L60.1342 22.854C60.0561 23.3065 59.8376 23.6811 59.4787 23.9776C59.1198 24.2741 58.714 24.4224 58.2614 24.4224H56.6462L57.6294 16.9549ZM54.9373 13.7244H58.0508L58.3785 11.243H55.2651L54.9373 13.7244ZM66.1726 17.5401L65.4703 22.854C65.3923 23.3065 65.1738 23.6811 64.8149 23.9776C64.4559 24.2741 64.0502 24.4224 63.5976 24.4224H62.0058H61.9356L63.9722 9.581C64.0346 9.17525 64.2375 8.81631 64.5808 8.50419C64.9397 8.17646 65.3455 8.0126 65.7981 8.0126H73.921H73.9444L72.8676 15.9249C72.8208 16.3774 72.6179 16.7598 72.259 17.0719C71.9156 17.384 71.5177 17.5401 71.0651 17.5401H66.1726ZM66.594 14.3565H69.8478L70.2458 11.243H66.9919L66.594 14.3565ZM77.1374 21.1919H82.8258H82.8492V21.2387L82.6853 22.854C82.6073 23.3065 82.3888 23.6811 82.0299 23.9776C81.6709 24.2741 81.2652 24.4224 80.8126 24.4224H73.4856H73.4153L75.4285 9.581C75.5066 9.17525 75.725 8.81631 76.084 8.50419C76.4429 8.17646 76.8487 8.0126 77.3012 8.0126H78.8931L77.1374 21.1919ZM89.3783 8.0126H94.739H94.8092L94.6454 9.581C94.5673 10.0336 94.3489 10.4237 93.9899 10.7515C93.631 11.0792 93.2252 11.243 92.7726 11.243H88.957L87.6461 21.1919H93.0301V21.2387L92.7961 22.854C92.7492 23.3065 92.5464 23.6811 92.1874 23.9776C91.8441 24.2741 91.4461 24.4224 90.9936 24.4224H83.9708L85.9138 9.581C85.945 9.37813 86.0152 9.18305 86.1245 8.99578C86.2493 8.8085 86.3976 8.64464 86.5692 8.50419C86.7409 8.34813 86.9282 8.23108 87.1311 8.15305C87.3495 8.05941 87.5758 8.0126 87.8099 8.0126H89.3783ZM98.4744 17.5401L97.7721 22.854C97.6941 23.3065 97.4756 23.6811 97.1167 23.9776C96.7577 24.2741 96.352 24.4224 95.8994 24.4224H94.3076H94.2374L96.2739 9.581C96.3364 9.17525 96.5392 8.81631 96.8826 8.50419C97.2415 8.17646 97.6473 8.0126 98.0999 8.0126H106.223H106.246L105.169 15.9249C105.123 16.3774 104.92 16.7598 104.561 17.0719C104.217 17.384 103.819 17.5401 103.367 17.5401H98.4744ZM98.8958 14.3565H102.15L102.548 11.243H99.2937L98.8958 14.3565Z" fill="white"/>
<defs>
<clipPath id="clip0_38_2279">
<rect width="29.2414" height="29.2414" fill="white" transform="translate(0 0.594727)"/>
</clipPath>
</defs>
</svg>
