<svg width="20" height="14" viewBox="0 0 20 14" fill="none" xmlns="http://www.w3.org/2000/svg">
<path d="M2.28333 13C2 13 1.76267 12.904 1.57133 12.712C1.37933 12.5207 1.28333 12.2833 1.28333 12C1.28333 11.7167 1.37933 11.4793 1.57133 11.288C1.76267 11.096 2 11 2.28333 11H18C18.2833 11 18.521 11.096 18.713 11.288C18.9043 11.4793 19 11.7167 19 12C19 12.2833 18.9043 12.5207 18.713 12.712C18.521 12.904 18.2833 13 18 13H2.28333ZM2 3C1.71667 3 1.47933 2.90433 1.288 2.713C1.096 2.521 1 2.28333 1 2C1 1.71667 1.096 1.479 1.288 1.287C1.47933 1.09567 1.71667 1 2 1H18C18.2833 1 18.5207 1.09567 18.712 1.287C18.904 1.479 19 1.71667 19 2C19 2.28333 18.904 2.521 18.712 2.713C18.5207 2.90433 18.2833 3 18 3H2ZM2 8C1.71667 8 1.479 7.904 1.287 7.712C1.09567 7.52067 1 7.28333 1 7C1 6.71667 1.09567 6.479 1.287 6.287C1.479 6.09567 1.71667 6 2 6H18C18.2833 6 18.5207 6.09567 18.712 6.287C18.904 6.479 19 6.71667 19 7C19 7.28333 18.904 7.52067 18.712 7.712C18.5207 7.904 18.2833 8 18 8H2Z" fill="#696F8C" stroke="white" stroke-width="0.2"/>
</svg>
