<svg width="24" height="24" viewBox="0 0 24 24" fill="none" xmlns="http://www.w3.org/2000/svg">
<path d="M4.28333 18C4 18 3.76267 17.904 3.57133 17.712C3.37933 17.5207 3.28333 17.2833 3.28333 17C3.28333 16.7167 3.37933 16.4793 3.57133 16.288C3.76267 16.096 4 16 4.28333 16H20C20.2833 16 20.521 16.096 20.713 16.288C20.9043 16.4793 21 16.7167 21 17C21 17.2833 20.9043 17.5207 20.713 17.712C20.521 17.904 20.2833 18 20 18H4.28333ZM4 8C3.71667 8 3.47933 7.90433 3.288 7.713C3.096 7.521 3 7.28333 3 7C3 6.71667 3.096 6.479 3.288 6.287C3.47933 6.09567 3.71667 6 4 6H20C20.2833 6 20.5207 6.09567 20.712 6.287C20.904 6.479 21 6.71667 21 7C21 7.28333 20.904 7.521 20.712 7.713C20.5207 7.90433 20.2833 8 20 8H4ZM4 13C3.71667 13 3.479 12.904 3.287 12.712C3.09567 12.5207 3 12.2833 3 12C3 11.7167 3.09567 11.479 3.287 11.287C3.479 11.0957 3.71667 11 4 11H20C20.2833 11 20.5207 11.0957 20.712 11.287C20.904 11.479 21 11.7167 21 12C21 12.2833 20.904 12.5207 20.712 12.712C20.5207 12.904 20.2833 13 20 13H4Z" fill="#696F8C" stroke="white" stroke-width="0.2"/>
</svg>
