<svg width="42" height="41" viewBox="0 0 42 41" fill="none" xmlns="http://www.w3.org/2000/svg">
<path d="M18.0788 6.59391L3.6092 30.7497C3.31087 31.2664 3.15302 31.8521 3.15135 32.4487C3.14968 33.0453 3.30425 33.6319 3.59968 34.1502C3.89511 34.6685 4.32111 35.1004 4.83529 35.403C5.34946 35.7055 5.9339 35.8682 6.53045 35.8747H35.4696C36.0662 35.8682 36.6506 35.7055 37.1648 35.403C37.679 35.1004 38.105 34.6685 38.4004 34.1502C38.6958 33.6319 38.8504 33.0453 38.8487 32.4487C38.8471 31.8521 38.6892 31.2664 38.3909 30.7497L23.9213 6.59391C23.6167 6.09184 23.1879 5.67674 22.6762 5.38865C22.1646 5.10056 21.5873 4.94922 21 4.94922C20.4128 4.94922 19.8355 5.10056 19.3238 5.38865C18.8121 5.67674 18.3833 6.09184 18.0788 6.59391Z" stroke="#5768FF" stroke-width="3.33" stroke-linecap="round" stroke-linejoin="round"/>
<path d="M21 15.3333L21 22" stroke="#5768FF" stroke-width="3.33333" stroke-linecap="round" stroke-linejoin="round"/>
<path d="M21 28.667L20.9833 28.667" stroke="#5768FF" stroke-width="3.33333" stroke-linecap="round" stroke-linejoin="round"/>
</svg>
